<?xml version="1.0" encoding="UTF-8"?><svg id="icons" xmlns="http://www.w3.org/2000/svg" viewBox="0 0 100 100"><defs><style>.cls-1{fill:#fff;stroke:#fff;}.cls-1,.cls-2{stroke-linecap:round;stroke-linejoin:round;}.cls-2{fill:none;stroke:#000;}</style></defs><polyline class="cls-2" points="49.5 62.87 55.24 52.93 46.31 52.93 58.35 32.06 50.78 32.06 69.3 0 87.81 32.06 80.23 32.06 92.29 52.93 83.34 52.93 99.68 81.23 76.99 81.23 76.99 100 61.61 100"/><path class="cls-1" d="m58.77,102c-.43,0-.85-.13-1.22-.41-.88-.67-1.04-1.93-.37-2.8,7.67-9.98,5.73-14.49,2.8-21.3-1.24-2.89-2.59-6.01-3.36-9.87-.05.93.08,1.78.23,2.69.35,2.21.78,4.95-1.06,9.19-.36.83-1.25,1.32-2.14,1.18-.9-.14-1.59-.87-1.68-1.77-.69-6.75-2.78-10.07-4.79-13.29-2.19-3.5-4.29-6.84-3.67-13.48-1.7,1.92-2.22,3.66-1.76,8.22.08.84-.36,1.64-1.12,2-.76.37-1.66.22-2.26-.37-6.13-5.96-5.03-11.5-4.07-16.38.81-4.08,1.58-7.98-1.06-12.81-.75,4.33-3.65,7.48-6.66,10.75-4.84,5.25-10.32,11.2-9.94,24.49.03.95-.62,1.79-1.55,2.01-.93.21-1.88-.26-2.27-1.12-2.41-5.32-2.71-9.22-2.24-12.56-17.08,21.5-1.64,41.48-.92,42.39.69.86.54,2.12-.32,2.81-.86.69-2.12.55-2.81-.31-.22-.27-21.33-27.39,6.57-53.48.65-.61,1.63-.71,2.39-.25.77.46,1.13,1.37.9,2.23-.12.43-.24.86-.36,1.28,2.17-4.3,5.04-7.42,7.6-10.19,4.28-4.65,7.11-7.72,5.15-14.09-.27-.89.1-1.84.9-2.31.8-.47,1.82-.33,2.46.34,8.58,8.96,7.19,15.97,6.08,21.61-.59,2.97-1.07,5.42-.29,7.91.68-2.98,2.37-4.74,4.93-7.15.71-.67,1.5-1.42,2.36-2.29.63-.65,1.63-.79,2.42-.34.79.45,1.18,1.37.94,2.25-2.53,9.5-.63,12.53,2,16.72.67,1.06,1.39,2.21,2.08,3.55.19-2.15,1.08-4.79,3.74-8.42.52-.71,1.44-1,2.27-.71.83.29,1.38,1.08,1.34,1.96-.24,6.98,1.74,11.58,3.65,16.03,2.98,6.93,5.8,13.47-3.31,25.32-.39.51-.99.78-1.59.78Z"/><path class="cls-2" d="m8.09,100s-20.5-25.64,6.38-50.77c-1.43,5.37-3.91,9.84.17,18.86-.76-26.54,20.97-26,16.06-41.94,14.75,15.4-2.4,23.27,9.06,34.4-.86-8.52,1.75-9.06,6.88-14.31-4.79,18.02,5.58,15.52,7.32,32.44,3.71-8.52-2.99-9.29,4.05-18.9-.66,19.01,14.53,22.29.76,40.2"/><path class="cls-2" d="m32.58,100c3.27-9.52.46-21.09-6.04-27.97,3.27,12.67-6.98,27.97-6.98,27.97"/><path class="cls-2" d="m47.41,100s-6.38-9.5-4.34-17.36c-4.03,4.27-5.79,11.46-3.75,17.36"/></svg>