<?xml version="1.0" encoding="UTF-8"?><svg id="icons" xmlns="http://www.w3.org/2000/svg" viewBox="0 0 100 100"><defs><style>.cls-1{fill:#fff;}</style></defs><rect x="43.12" y="8.45" width="28.93" height="14.2" transform="translate(.63 33.25) rotate(-32.38)"/><path class="cls-1" d="m36.02,38.22l-.27-.42-.42.27-.42.27-25.32,16.05-7.6-11.99,25.32-16.05.42-.27.42-.27-.27-.42-.26-.42-.43.26-.42.27L.61,42.09l8.67,13.68,26.16-16.59.42-.27.43-.27-.27-.42ZM66.31.43l-25.27,16.03-.42.26-.42.27.26.42.27.42.42-.26.42-.27L66,1.81l7.6,11.99-24.43,15.49-.42.27-.42.26.27.42.27.43.42-.27.42-.27,25.27-16.02L66.31.43Z"/><rect x="3.46" y="33.27" width="29.98" height="14.2" transform="translate(-18.74 16.15) rotate(-32.37)"/><polygon points="52.1 35.77 39.52 43.74 36.29 38.64 36.02 38.22 35.75 37.8 28.15 25.81 27.88 25.39 27.62 24.97 23.63 18.68 36.21 10.7 40.2 16.99 40.46 17.41 40.73 17.83 48.33 29.82 48.6 30.24 48.87 30.67 52.1 35.77"/><path d="m48.93,70.8c-.57,0-1.15-.02-1.72-.06-.28-.02-.48-.26-.46-.53.02-.28.27-.49.53-.46,6.15.43,12.13-1.56,16.8-5.61,4.66-4.05,7.47-9.68,7.9-15.85.02-.28.27-.49.53-.46.28.02.48.26.46.53-.45,6.44-3.38,12.31-8.24,16.54-4.43,3.85-9.98,5.92-15.8,5.92Z"/><path d="m48.91,61.3c-.35,0-.7-.01-1.04-.04-.28-.02-.48-.26-.46-.53.02-.28.26-.47.53-.46,3.64.26,7.15-.92,9.9-3.31s4.4-5.71,4.65-9.34c.02-.28.26-.48.53-.46.28.02.48.26.46.53-.27,3.9-2.05,7.46-5,10.03-2.69,2.33-6.05,3.59-9.58,3.59Z"/><path d="m48.96,52.54c-.16,0-.32,0-.48-.02-.28-.02-.48-.26-.46-.53.02-.28.26-.49.53-.46,1.52.1,3.01-.39,4.17-1.39s1.85-2.4,1.96-3.93c.02-.28.25-.47.53-.46.28.02.48.26.46.53-.13,1.8-.94,3.44-2.3,4.62-1.24,1.07-2.79,1.65-4.41,1.65Z"/><path d="m98.99,68.04l.1-.36c-8.49-2.27-17.11-2.11-25.1.06-.6.16-1.2.33-1.79.53-14.26,4.46-26.26,15.41-31.43,30.41l.4.14.47.16.04.02h13.36c-1.33-1.85-4.92-4.66-1.42-5.07,5.47-.64,10.77,1.7,11.16,5.07h34.22v-30.44s-.09-.03-.14-.04l.13-.48Zm-5.21,9.33c-2.45,11.98-12.09,11.76-23.05,15.94-9.93,3.78-9.05-14.16-11.41-17.62,5.22-3.64,11.14-6.24,17.4-7.58,6.13.29,19.01-.25,17.06,9.26Z"/><path class="cls-1" d="m73.99,67.74c-.6.16-1.2.33-1.79.53l1.48-.74c.07.08.17.15.31.21Z"/><polygon points="41.71 99 41.71 99.01 41.68 99 41.71 99"/></svg>