<?xml version="1.0" encoding="UTF-8"?><svg id="icons" xmlns="http://www.w3.org/2000/svg" viewBox="0 0 100 100"><path d="m97.96,80.23h-21.97v18.77h-13.38v-5c6.43-12.96-5.18-17.53-4.6-34.2-7.04,9.61-.34,10.38-4.05,18.9-.69-6.72-2.74-10.38-4.66-13.47l6.81-11.79.87-1.5h-8.93l11.17-19.37.87-1.5h-7.58L69.3,2l16.78,29.07h-7.58l.87,1.5,11.19,19.37h-8.95l.87,1.5,15.48,26.79Z"/><path d="m62.61,91.55c-.15.39-.31.8-.5,1.21-.15.34-.31.68-.5,1.04-.8,1.58-1.9,3.3-3.33,5.2h-10.31c-1.18-1.92-5.58-9.7-3.92-16.1l.43-1.67.26-1,.29-1.1-1.04,1.1-.48.5-.47.5-.69.73c-4.13,4.37-5.83,11.2-4.35,17.04h-4.05c2.66-9.39.01-20.57-6.68-27.65l-2.66-2.83.97,3.76c2.82,10.91-4.96,24.15-6.57,26.72h-10.42c-1.08-1.49-4.97-7.28-6.42-15.22-2.04-11.2,1.4-21.63,10.24-31.08-1.17,4.11-1.94,8.62,1.32,15.81l2.05,4.54-.14-4.98c-.4-13.69,5.23-19.8,10.2-25.2,3.68-3.99,6.94-7.53,6.56-13.18,4.8,6.4,3.82,11.33,2.88,16.12-.96,4.86-1.96,9.89,3.78,15.47l1.97,1.91-.28-2.73c-.66-6.57.75-7.9,4.16-11.13-1.56,8.29.63,11.78,3.12,15.75.04.06.07.11.1.17.1.16.2.32.3.48.1.16.2.32.3.48,1.78,2.91,3.6,6.43,4.24,12.59l.15,1.43.1,1,.14,1.36.59-1.36.22-.5.22-.5.49-1.13c1.73-3.97,1.34-6.45.99-8.64-.34-2.14-.64-4.05,1.18-7.35.37,5.87,2.21,10.14,3.86,13.98.46,1.08.91,2.12,1.3,3.14.14.37.28.75.4,1.12,1.08,3.18,1.46,6.27,0,10.2Z"/></svg>