<?xml version="1.0" encoding="UTF-8"?><svg id="icons" xmlns="http://www.w3.org/2000/svg" viewBox="0 0 100 100"><path d="m98.61,49.66c0,9.33-7.59,16.91-16.92,16.91h-4.15v-23.3c0,.22-.02.43-.06.65-.88-4.9-12.12-8.77-25.86-8.77s-24.98,3.87-25.86,8.77c-.04-.22-.06-.43-.06-.65v23.3h-7.39c-9.32,0-16.91-7.58-16.91-16.91s7.17-16.58,16.32-16.9l1.23-.05-.3-1.19c-.4-1.64-.61-3.34-.61-5.05,0-11.71,9.54-21.25,21.27-21.25,7.86,0,15.04,4.31,18.75,11.23l.39.75.81-.27c1.66-.56,3.42-.84,5.24-.84,8.85,0,16.26,6.91,16.87,15.74l.06.89.9.04c9.12.34,16.28,7.76,16.28,16.9Z"/><path d="m76.54,44.54c0,.98-.59,1.98-1.7,2.91-1.61,1.17-3.87,2.2-6.62,3.02-4.5,1.36-10.29,2.18-16.6,2.18s-12.1-.82-16.6-2.18c-2.76-.83-5.06-1.87-6.66-3.06-1.08-.92-1.66-1.9-1.66-2.87,0-3.96,10.24-8.39,24.92-8.39s24.92,4.43,24.92,8.39Z"/><path d="m76.54,47.35v10.31c0,.97-.57,1.96-1.65,2.87-1.61,1.2-3.9,2.23-6.67,3.07-4.5,1.36-10.29,2.18-16.6,2.18s-12.1-.82-16.6-2.18c-2.8-.85-5.11-1.9-6.71-3.1-1.05-.91-1.61-1.88-1.61-2.84v-10.31c.34.32.73.64,1.16.94,1.62,1.35,4.09,2.53,7.16,3.45,4.5,1.36,10.29,2.18,16.6,2.18s12.1-.82,16.6-2.18c3.1-.93,5.59-2.12,7.21-3.48.41-.29.78-.6,1.11-.91Z"/><path d="m76.54,60.48v10.32c0,.97-.58,1.94-1.65,2.86h-.01c-1.61,1.19-3.89,2.22-6.66,3.06-4.5,1.36-10.29,2.19-16.6,2.19s-12.1-.83-16.6-2.19c-2.78-.84-5.09-1.89-6.69-3.08-1.06-.91-1.63-1.88-1.63-2.84v-10.32c.36.34.76.67,1.21.99l.02.02c1.63,1.31,4.07,2.47,7.09,3.38,2.47.75,5.32,1.33,8.44,1.7,2.57.31,5.31.48,8.16.48s5.59-.17,8.16-.48c3.12-.37,5.97-.95,8.44-1.7,3.07-.92,5.53-2.1,7.16-3.43.43-.31.82-.63,1.16-.96Z"/><path d="m76.54,73.6v10.33c0,3.96-10.24,8.38-24.92,8.38s-24.92-4.42-24.92-8.38v-10.33c.34.32.72.64,1.14.94.03.02.06.04.09.07,1.63,1.31,4.07,2.47,7.09,3.38,4.5,1.36,10.29,2.18,16.6,2.18s12.1-.82,16.6-2.18c3.07-.92,5.54-2.1,7.17-3.44.42-.31.81-.63,1.15-.95Z"/></svg>