<?xml version="1.0" encoding="UTF-8"?><svg id="icons" xmlns="http://www.w3.org/2000/svg" viewBox="0 0 100 100"><defs><style>.cls-1,.cls-2{fill:#fff;}.cls-2,.cls-3{stroke:#000;stroke-linecap:round;stroke-linejoin:round;}.cls-3{fill:none;}</style></defs><polyline class="cls-2" points="21.8 55.89 21.8 44.34 11.24 44.34 49.21 9.93 87.18 44.34 76.64 44.34 76.64 56.02"/><path class="cls-1" d="m50,60.01c-5.05,0-8.84-1.27-11.25-3.78-.26-.28-.51-.57-.74-.87l-.39-.52-.4.51c-.24.31-.5.6-.78.88-2.43,2.46-6.18,3.71-11.12,3.71s-8.71-1.25-11.14-3.71c-.33-.33-.63-.69-.9-1.05l-.4-.54-.4.54c-2.39,3.2-6.37,4.82-11.84,4.82-.83,0-1.5-.67-1.5-1.5s.67-1.5,1.5-1.5c10.06,0,10.8-6.25,10.85-6.96.06-.8.69-1.41,1.47-1.41.91.04,1.54.7,1.53,1.51,0,.71.39,6.81,10.84,6.81s10.82-6.12,10.84-6.82v-.12c.03-.81.69-1.44,1.5-1.44.84.01,1.49.66,1.5,1.48v.12c0,.39.13,2.34,1.81,4.03,1.84,1.86,4.88,2.8,9.04,2.8s7.25-.97,9.05-2.8c1.8-1.82,1.79-3.95,1.79-4.04,0-.85.65-1.53,1.46-1.54h0c.85,0,1.5.63,1.53,1.44.03.77.58,6.88,10.84,6.88s10.82-6.2,10.84-6.9c.03-.8.67-1.45,1.47-1.46h0c.85,0,1.46.59,1.52,1.37.07.73.98,7,10.85,7,.83,0,1.5.67,1.5,1.5s-.67,1.5-1.5,1.5c-5.43,0-9.41-1.66-11.83-4.93l-.41-.56-.4.56c-2.32,3.27-6.37,4.92-12.04,4.92s-9.5-1.56-11.85-4.63l-.4-.53-.4.53c-.23.31-.49.61-.77.9-2.41,2.51-6.21,3.78-11.27,3.78Z"/><path class="cls-1" d="m37.67,49.07c.54,0,.98.44.98.97v.16c0,.41.14,2.52,1.95,4.35,1.93,1.96,5.09,2.95,9.39,2.95s7.5-1.02,9.41-2.95c1.91-1.93,1.94-4.15,1.94-4.43,0-.54.43-.99,1.01-1.01.53,0,.97.42.99.97v.06s0,.01,0,.01c.03.75.61,7.29,11.34,7.29s11.32-6.63,11.34-7.39c.02-.54.45-.97,1.01-.98h.05c.5,0,.9.39.94.93.08.76,1.03,7.44,11.34,7.44.55,0,1,.45,1,1s-.45,1-1,1c-5.26,0-9.11-1.59-11.43-4.73l-.82-1.11-.8,1.13c-2.22,3.13-6.13,4.71-11.64,4.71s-9.2-1.49-11.45-4.44l-.8-1.05-.79,1.06c-.22.29-.46.58-.73.86-2.32,2.4-5.99,3.62-10.91,3.62s-8.58-1.22-10.89-3.63c-.25-.26-.49-.54-.7-.82l-.79-1.04-.8,1.03c-.23.29-.47.57-.74.84-2.34,2.37-5.96,3.57-10.77,3.57s-8.45-1.2-10.79-3.56c-.31-.32-.6-.65-.86-1l-.8-1.08-.81,1.08c-2.29,3.07-6.14,4.62-11.44,4.62-.55,0-1-.45-1-1s.45-1,1-1c10.51,0,11.29-6.67,11.35-7.43.04-.54.45-.94.97-.94h.07c.54.02.97.46.96,1.03,0,.75.41,7.29,11.34,7.29s11.32-6.56,11.34-7.33v-.08c.02-.54.46-.96,1-.96h.02m0-1h-.03c-1.07,0-1.96.85-2,1.92,0,.03,0,.07,0,.12-.03.83-.57,6.33-10.34,6.33s-10.34-5.68-10.34-6.3c.01-1.08-.84-1.97-1.92-2.01-.04,0-.08,0-.11,0-1.06,0-1.89.83-1.97,1.87-.05.67-.74,6.5-10.35,6.5-1.1,0-2,.9-2,2s.9,2,2,2c6.77,0,10.35-2.49,12.24-5.02.27.37.59.74.95,1.11,2.53,2.56,6.4,3.86,11.5,3.86s8.95-1.3,11.48-3.86c.3-.31.57-.62.81-.93.23.31.49.61.78.91,2.51,2.61,6.42,3.93,11.62,3.93s9.12-1.32,11.63-3.93c.3-.31.57-.63.81-.95,1.88,2.46,5.46,4.83,12.25,4.83s10.63-2.56,12.45-5.13c1.9,2.56,5.48,5.13,12.23,5.13,1.1,0,2-.9,2-2s-.9-2-2-2c-9.43,0-10.29-5.88-10.35-6.53-.08-1.03-.9-1.84-1.94-1.84-.03,0-.07,0-.1,0-1.06.02-1.92.89-1.96,1.95-.02.66-.49,6.42-10.34,6.42s-10.32-5.63-10.34-6.33c0-.03,0-.06,0-.07-.04-1.07-.91-1.92-1.99-1.92-.02,0-.04,0-.06,0-1.09.02-1.96.92-1.95,2.02,0,0,0,.01,0,.04,0,.08,0,2.01-1.65,3.68-1.71,1.73-4.72,2.65-8.7,2.65s-6.94-.89-8.68-2.65c-1.56-1.58-1.66-3.4-1.67-3.67,0-.06,0-.11,0-.13-.01-1.08-.89-1.96-1.97-1.97h0Z"/><path class="cls-3" d="m.62,58.51c11.94,0,12.34-8.38,12.34-8.38,0,0-.11,8.33,12.34,8.33s12.34-8.38,12.34-8.38c0,0-.32,8.43,12.34,8.43s12.34-8.38,12.34-8.38c0,0,.06,8.33,12.34,8.33s12.34-8.38,12.34-8.38c0,0,.64,8.38,12.34,8.38"/><path class="cls-3" d="m.62,72.48c11.94,0,12.34-8.38,12.34-8.38,0,0-.11,8.33,12.34,8.33s12.34-8.38,12.34-8.38c0,0-.32,8.43,12.34,8.43s12.34-8.38,12.34-8.38c0,0,.06,8.33,12.34,8.33s12.34-8.38,12.34-8.38c0,0,.64,8.38,12.34,8.38"/></svg>