<?xml version="1.0" encoding="UTF-8"?><svg id="icons" xmlns="http://www.w3.org/2000/svg" viewBox="0 0 100 100"><path d="m84.59,43.34h-8.95v14.62c-.31.01-.62.02-.95.02-11.91,0-12.33-7.84-12.34-8.31,0,.47-.06,8.36-12.35,8.36s-12.34-7.63-12.34-8.37c-.02.74-.5,8.32-12.35,8.32-.9,0-1.74-.04-2.51-.13v-14.51h-8.96L49.21,11.28l35.38,32.06Z"/><path d="m98.38,58.96v13.45c-10.74-.46-11.35-8.36-11.35-8.36,0,0-.05,7.47-10.39,8.3-.16.02-.33.03-.5.04-.16,0-.33.02-.5.02-.31.01-.62.02-.95.02-11.91,0-12.33-7.84-12.34-8.31,0,.47-.06,8.36-12.35,8.36s-12.34-7.63-12.34-8.37c-.02.74-.5,8.32-12.35,8.32-.9,0-1.74-.04-2.51-.13-.17-.01-.34-.03-.5-.06-.17-.02-.34-.04-.5-.07-8.75-1.37-8.83-7.83-8.83-8.06-.02.36-.63,7.91-11.34,8.35v-13.45c6.84-.27,9.89-3.34,11.26-5.88.37.74.9,1.53,1.64,2.29,1.73,1.75,4.17,2.86,7.27,3.32.17.02.33.04.5.06.16.03.33.04.5.06.79.08,1.63.12,2.51.12,7.65,0,10.91-3.01,12.31-5.62,1.35,2.64,4.6,5.67,12.38,5.67,4.88,0,8.52-1.19,10.84-3.55.71-.71,1.21-1.47,1.58-2.18,1.41,2.61,4.68,5.68,12.27,5.68.32,0,.64-.01.95-.02.17,0,.34,0,.5-.02.17-.01.34-.02.5-.04,6.47-.5,9.27-3.5,10.48-5.96,1.36,2.56,4.43,5.73,11.26,6.02Z"/><path d="m98.38,73.41v25.59H1.63v-25.54c6.84-.27,9.89-3.34,11.26-5.88.37.75.9,1.54,1.64,2.29,1.73,1.75,4.17,2.86,7.27,3.32.17.02.33.05.5.06.16.03.33.04.5.06.79.08,1.63.12,2.51.12,7.65,0,10.91-3,12.31-5.61,1.35,2.63,4.6,5.66,12.38,5.66,4.88,0,8.52-1.19,10.84-3.55.71-.71,1.21-1.46,1.58-2.18,1.41,2.61,4.68,5.68,12.27,5.68.32,0,.64-.01.95-.02.17,0,.34-.01.5-.02.17-.01.34-.02.5-.03,6.47-.51,9.27-3.5,10.48-5.96,1.36,2.55,4.43,5.73,11.26,6.01Z"/></svg>