<?xml version="1.0" encoding="UTF-8"?><svg id="icons" xmlns="http://www.w3.org/2000/svg" viewBox="0 0 100 100"><defs><style>.cls-1{fill:none;stroke:#191919;stroke-linecap:round;stroke-linejoin:round;}</style></defs><polyline class="cls-1" points="35.93 38.89 9.39 55.71 .75 42.08 27.16 25.34"/><polyline class="cls-1" points="40.66 16.78 66.24 .56 74.88 14.19 49.36 30.37"/><path d="m36.23,10.8l15.84,24.98-12.54,7.95-15.84-24.98,12.54-7.95m.31-1.38l-14.22,9.02,16.91,26.67,14.22-9.02-16.91-26.67h0Z"/><path class="cls-1" d="m47.24,70.24c13.03.91,24.32-8.9,25.23-21.93"/><path class="cls-1" d="m47.9,60.77c7.79.55,14.54-5.32,15.09-13.12"/><path class="cls-1" d="m48.51,52.02c3.44.24,6.42-2.35,6.66-5.79"/><path class="cls-1" d="m40.26,100.47c7.61-25.41,34.33-39.81,59.74-32.2"/><path class="cls-1" d="m73.68,68c1.5,1.82,22.57-2.14,20.11,9.84-2.46,11.98-12.1,11.76-23.05,15.93s-8.76-18.08-12.26-18.18"/><path class="cls-1" d="m64.81,99.87c0-3.58-5.5-6.14-11.19-5.48-4.23.5,1.88,4.48,1.88,6.07"/></svg>