<?xml version="1.0" encoding="UTF-8"?><svg id="icons" xmlns="http://www.w3.org/2000/svg" viewBox="0 0 100 100"><defs><style>.cls-1{fill:none;stroke:#000;stroke-linecap:round;stroke-linejoin:round;}</style></defs><path class="cls-1" d="m26.24,67.57h-7.93C8.42,67.57.4,59.55.4,49.66s7.68-17.57,17.28-17.9c-.42-1.7-.64-3.46-.64-5.28,0-12.29,9.97-22.25,22.26-22.25,8.5,0,15.89,4.76,19.63,11.76,1.75-.59,3.63-.89,5.57-.89,9.48,0,17.22,7.35,17.86,16.67,9.58.36,17.24,8.23,17.24,17.9s-8.02,17.91-17.91,17.91h-4.56"/><path d="m51.62,36.15c14.68,0,24.92,4.42,24.92,8.39,0,2.28-3.22,4.62-8.6,6.24-4.58,1.38-10.37,2.14-16.31,2.14s-11.74-.76-16.31-2.14c-5.39-1.62-8.6-3.95-8.6-6.24,0-3.97,10.23-8.39,24.92-8.39m0-1c-14.32,0-25.92,4.2-25.92,9.39,0,2.89,3.62,5.48,9.31,7.19,4.5,1.36,10.29,2.18,16.6,2.18s12.1-.82,16.6-2.18c5.69-1.71,9.31-4.3,9.31-7.19,0-5.19-11.6-9.39-25.92-9.39h0Z"/><path d="m76.53,47.35v10.32c0,2.29-3.22,4.63-8.6,6.25-4.58,1.38-10.37,2.14-16.31,2.14s-11.74-.76-16.31-2.14c-5.39-1.62-8.6-3.96-8.6-6.25v-10.32c1.68,1.6,4.4,2.99,8.02,4.08,4.76,1.43,10.76,2.23,16.89,2.23s12.13-.79,16.89-2.22c3.63-1.09,6.34-2.48,8.03-4.08m1-4.07c0,2.89-3.62,5.48-9.31,7.19-4.5,1.36-10.29,2.18-16.6,2.18s-12.1-.82-16.6-2.18c-5.69-1.71-9.31-4.3-9.31-7.19v14.39c0,2.91,3.62,5.49,9.31,7.21,4.5,1.36,10.29,2.18,16.6,2.18s12.1-.82,16.6-2.18c5.69-1.71,9.31-4.3,9.31-7.21v-14.39h0Z"/><path d="m76.53,60.48v10.32c0,2.28-3.22,4.62-8.6,6.24-4.58,1.38-10.37,2.14-16.31,2.14s-11.74-.76-16.31-2.14c-5.39-1.62-8.6-3.95-8.6-6.24v-10.32c1.68,1.6,4.4,2.99,8.02,4.08,4.76,1.43,10.76,2.23,16.89,2.23s12.13-.79,16.89-2.22c3.63-1.09,6.34-2.48,8.03-4.08m1-4.08c0,2.91-3.62,5.49-9.31,7.21-4.5,1.36-10.29,2.18-16.6,2.18s-12.1-.82-16.6-2.18c-5.69-1.71-9.31-4.3-9.31-7.21v14.4c0,2.89,3.62,5.48,9.31,7.19,4.5,1.36,10.29,2.18,16.6,2.18s12.1-.82,16.6-2.18c5.69-1.71,9.31-4.3,9.31-7.19v-14.4h0Z"/><path d="m76.53,73.6v10.33c0,3.96-10.23,8.38-24.92,8.38s-24.92-4.41-24.92-8.38v-10.33c1.68,1.6,4.4,2.99,8.02,4.08,4.76,1.43,10.76,2.23,16.89,2.23s12.13-.79,16.89-2.22c3.63-1.09,6.34-2.48,8.03-4.08m1-4.07c0,2.89-3.62,5.48-9.31,7.19-4.5,1.36-10.29,2.18-16.6,2.18s-12.1-.82-16.6-2.18c-5.69-1.71-9.31-4.3-9.31-7.19v14.4c0,5.18,11.6,9.38,25.92,9.38s25.92-4.2,25.92-9.38v-14.4h0Z"/></svg>