<?xml version="1.0" encoding="UTF-8"?><svg id="icons" xmlns="http://www.w3.org/2000/svg" viewBox="0 0 100 100"><defs><style>.cls-1{fill:none;stroke:#000;stroke-linecap:round;stroke-linejoin:round;}</style></defs><line class="cls-1" y1="66.73" x2="100.18" y2="66.73"/><polyline class="cls-1" points="67.62 66.73 86 84.81 74.08 95.23 90.76 98.42"/><polyline class="cls-1" points="54.34 67.3 44.81 79.33 41.18 93.62"/><polyline class="cls-1" points="22.76 67.3 28.78 76.94 15.05 82.62 7.45 92.94"/><circle class="cls-1" cx="26.76" cy="29.22" r="9.18"/><line class="cls-1" x1="45.1" y1="79.97" x2="51.3" y2="89.65"/><line class="cls-1" x1="26.76" y1="40.85" x2="26.76" y2="49.39"/><line class="cls-1" x1="26.76" y1="9.04" x2="26.76" y2="17.58"/><line class="cls-1" x1="34.98" y1="37.44" x2="41.02" y2="43.48"/><line class="cls-1" x1="12.49" y1="14.95" x2="18.53" y2="20.99"/><line class="cls-1" x1="38.39" y1="29.22" x2="46.93" y2="29.22"/><line class="cls-1" x1="6.58" y1="29.22" x2="15.12" y2="29.22"/><line class="cls-1" x1="34.98" y1="20.99" x2="41.02" y2="14.95"/><line class="cls-1" x1="12.49" y1="43.48" x2="18.53" y2="37.44"/></svg>