<?xml version="1.0" encoding="UTF-8"?><svg id="icons" xmlns="http://www.w3.org/2000/svg" viewBox="0 0 100 100"><defs><style>.cls-1{fill:none;stroke:#000;stroke-linecap:round;stroke-miterlimit:10;stroke-width:2px;}</style></defs><path d="m99.16,67.74l-.46,31.26H1v-31.26h21.45l5.59,8.97-13.31,5.5-7.68,10.44c-.16.22-.12.53.1.7.09.06.2.1.3.1.15,0,.31-.07.4-.21l7.52-10.21,14.15-5.84-5.89-9.45h29.73l-8.94,11.28-3.72,14.48c-.07.27.09.54.36.61.04.01.08.02.12.02.23,0,.43-.15.49-.38l3.24-12.78,5.83,9.11c.09.15.25.23.42.23.09,0,.18-.03.27-.08.23-.15.3-.46.15-.69l-6.2-9.68c-.04-.06-.09-.11-.15-.14l.04-.16,9.37-11.82h13.34l17.27,15.63-12.27,10.72,17.69,3.39s.06.01.09.01c.24,0,.45-.17.49-.41.06-.27-.12-.53-.39-.59l-15.67-3,11.56-10.11-17.28-15.64h29.69Z"/><path d="m34.94,29.22c0,4.51-3.67,8.18-8.18,8.18s-8.18-3.67-8.18-8.18,3.67-8.18,8.18-8.18,8.18,3.67,8.18,8.18Z"/><line class="cls-1" x1="26.76" y1="40.85" x2="26.76" y2="49.39"/><line class="cls-1" x1="26.76" y1="9.04" x2="26.76" y2="17.58"/><line class="cls-1" x1="34.98" y1="37.44" x2="41.02" y2="43.48"/><line class="cls-1" x1="12.49" y1="14.95" x2="18.53" y2="20.99"/><line class="cls-1" x1="38.39" y1="29.22" x2="46.93" y2="29.22"/><line class="cls-1" x1="6.58" y1="29.22" x2="15.12" y2="29.22"/><line class="cls-1" x1="34.98" y1="20.99" x2="41.02" y2="14.95"/><line class="cls-1" x1="12.49" y1="43.48" x2="18.53" y2="37.44"/></svg>